<svg width="25" height="15" viewBox="0 0 25 15" fill="none" xmlns="http://www.w3.org/2000/svg">
<path d="M19.5312 8.28125H5.46875C5.03125 8.28125 4.6875 7.9375 4.6875 7.5C4.6875 7.0625 5.03125 6.71875 5.46875 6.71875H19.5312C19.9688 6.71875 20.3125 7.0625 20.3125 7.5C20.3125 7.9375 19.9688 8.28125 19.5312 8.28125Z" fill="#F1C175"/>
<path d="M15.625 13.75C15.5225 13.7513 15.4209 13.731 15.3268 13.6907C15.2326 13.6503 15.1479 13.5907 15.0781 13.5156C14.7656 13.2031 14.7656 12.7188 15.0781 12.4062L20 7.48437L15.0781 2.5625C14.7656 2.25 14.7656 1.76562 15.0781 1.45313C15.3906 1.14063 15.875 1.14063 16.1875 1.45313L21.6562 6.92188C21.9687 7.23438 21.9687 7.71875 21.6562 8.03125L16.1875 13.5C16.0312 13.6562 15.8281 13.7344 15.6406 13.7344L15.625 13.75Z" fill="#F1C175"/>
</svg>
