<svg width="25" height="24" viewBox="0 0 25 24" fill="none" xmlns="http://www.w3.org/2000/svg">
<path d="M8.92034 8.23594L11.5183 3.00394C11.594 2.85253 11.7103 2.72517 11.8542 2.63616C11.9982 2.54715 12.1641 2.5 12.3333 2.5C12.5026 2.5 12.6685 2.54715 12.8124 2.63616C12.9564 2.72517 13.0727 2.85253 13.1483 3.00394L15.7463 8.23594L21.5543 9.07994C21.7219 9.10317 21.8795 9.17303 22.0092 9.28155C22.1389 9.39007 22.2355 9.53288 22.288 9.69367C22.3404 9.85446 22.3466 10.0268 22.3058 10.1909C22.2651 10.355 22.1789 10.5044 22.0573 10.6219L17.8553 14.6919L18.8473 20.4419C18.9743 21.1799 18.1943 21.7419 17.5273 21.3939L12.3333 18.6779L7.13834 21.3939C6.47234 21.7429 5.69234 21.1799 5.81934 20.4409L6.81134 14.6909L2.60934 10.6209C2.48832 10.5033 2.40274 10.3541 2.3623 10.1903C2.32187 10.0264 2.32821 9.85451 2.38061 9.69409C2.433 9.53367 2.52935 9.39116 2.65871 9.28277C2.78806 9.17439 2.94522 9.10446 3.11234 9.08094L8.92034 8.23594Z" fill="#F1C175" stroke="#F1C175" stroke-width="1.5" stroke-linecap="round" stroke-linejoin="round"/>
</svg>
