<svg width="174" height="68" viewBox="0 0 174 68" fill="none" xmlns="http://www.w3.org/2000/svg">
<path d="M26.6826 18.4113C23.4462 16.8661 18.9227 16.1092 12.8664 16.0824C12.2953 16.0746 11.7353 16.2411 11.2612 16.5598C10.8721 16.8228 10.5536 17.1774 10.3336 17.5924C10.1137 18.0074 9.99915 18.4701 10 18.9398V44.5675C10 46.2999 11.2326 47.6068 12.8664 47.6068C19.2326 47.6068 25.6184 48.2016 29.4433 51.8168C29.4957 51.8665 29.5614 51.8997 29.6325 51.9123C29.7035 51.925 29.7767 51.9164 29.8429 51.8878C29.9092 51.8592 29.9655 51.8117 30.005 51.7513C30.0445 51.6909 30.0653 51.6203 30.065 51.5481V21.3512C30.0652 21.1475 30.0216 20.9461 29.9372 20.7606C29.8528 20.5752 29.7296 20.41 29.5759 20.2763C28.6998 19.5273 27.7266 18.9 26.6826 18.4113Z" fill="#F1C175"/>
<path d="M51.7352 16.5571C51.2609 16.2393 50.7009 16.0736 50.13 16.0824C44.0738 16.1092 39.5502 16.8626 36.3138 18.4113C35.2699 18.8991 34.2965 19.5252 33.4196 20.2727C33.2663 20.4067 33.1434 20.5719 33.0592 20.7573C32.975 20.9427 32.9314 21.144 32.9315 21.3476V51.5463C32.9314 51.6157 32.9518 51.6835 32.9902 51.7412C33.0285 51.799 33.0831 51.8442 33.147 51.871C33.2109 51.8979 33.2813 51.9053 33.3494 51.8924C33.4175 51.8794 33.4803 51.8466 33.5298 51.798C35.8292 49.5139 39.8646 47.6041 50.1336 47.605C50.8938 47.605 51.6229 47.303 52.1605 46.7654C52.698 46.2279 53 45.4988 53 44.7386V18.9407C53.0011 18.4701 52.8862 18.0065 52.6656 17.5908C52.4451 17.1751 52.1255 16.8201 51.7352 16.5571Z" fill="#F1C175"/>
<path d="M81.9814 48.429L71.1904 22.26L76.4704 21.6L83.4664 41.433L89.2744 21.6L94.5874 22.26L85.3144 45.525L86.0074 47.373L81.9814 48.429ZM109.881 48.33C109.331 47.89 108.902 47.472 108.594 47.076C108.308 46.658 108.066 46.163 107.868 45.591C107.472 46.273 106.911 46.823 106.185 47.241C105.459 47.637 104.645 47.923 103.743 48.099C102.863 48.275 101.961 48.363 101.037 48.363C99.1666 48.363 97.7586 47.934 96.8126 47.076C95.8666 46.218 95.3716 45.019 95.3276 43.479V43.347C95.3276 41.587 95.8886 40.201 97.0106 39.189C98.1326 38.177 99.6946 37.451 101.697 37.011C103.061 36.703 104.205 36.373 105.129 36.021C106.075 35.647 106.548 35.229 106.548 34.767C106.548 33.293 105.393 32.556 103.083 32.556C101.917 32.556 100.784 32.787 99.6836 33.249C98.5836 33.689 97.6816 34.217 96.9776 34.833L95.6576 32.457C96.4276 31.445 97.4836 30.664 98.8256 30.114C100.19 29.564 101.73 29.289 103.446 29.289C105.998 29.289 107.912 29.762 109.188 30.708C110.486 31.632 111.135 33.095 111.135 35.097V42.588C111.135 43.446 111.3 44.293 111.63 45.129C111.96 45.965 112.433 46.691 113.049 47.307L109.881 48.33ZM99.8816 43.017C99.9036 43.611 100.08 44.117 100.41 44.535C100.74 44.953 101.235 45.162 101.895 45.162C102.863 45.162 103.809 44.887 104.733 44.337C105.657 43.787 106.295 43.094 106.647 42.258C106.757 42.016 106.823 41.719 106.845 41.367C106.889 40.993 106.911 40.608 106.911 40.212C106.911 39.64 106.889 39.123 106.845 38.661C106.801 38.199 106.779 37.968 106.779 37.968C106.295 38.342 105.668 38.661 104.898 38.925C104.15 39.189 103.358 39.442 102.522 39.684C101.708 39.904 101.059 40.267 100.575 40.773C100.113 41.279 99.8816 41.95 99.8816 42.786V43.017ZM128.313 48.429L122.043 39.717L120.789 40.905V48L116.961 48.462L116.301 21.6L120.789 22.26V37.275L127.158 29.124L132.075 30.147L123.99 37.869L132.867 47.538L128.313 48.429ZM140.563 24.306C140.563 25.076 140.288 25.736 139.738 26.286C139.188 26.836 138.528 27.111 137.758 27.111C136.988 27.111 136.328 26.836 135.778 26.286C135.228 25.736 134.953 25.076 134.953 24.306C134.953 23.536 135.228 22.876 135.778 22.326C136.328 21.776 136.988 21.501 137.758 21.501C138.528 21.501 139.188 21.776 139.738 22.326C140.288 22.876 140.563 23.536 140.563 24.306ZM135.415 48.462V29.124L140.134 29.685L139.474 48L135.415 48.462ZM153.104 48.363C151.19 48.363 149.529 47.978 148.121 47.208C146.735 46.416 145.657 45.305 144.887 43.875C144.117 42.445 143.732 40.773 143.732 38.859C143.732 36.923 144.117 35.24 144.887 33.81C145.657 32.38 146.735 31.269 148.121 30.477C149.529 29.685 151.19 29.289 153.104 29.289C155.04 29.289 156.701 29.685 158.087 30.477C159.495 31.269 160.573 32.38 161.321 33.81C162.069 35.24 162.443 36.923 162.443 38.859C162.443 40.773 162.069 42.445 161.321 43.875C160.573 45.305 159.495 46.416 158.087 47.208C156.701 47.978 155.04 48.363 153.104 48.363ZM153.632 45.327C155.018 45.217 156.096 44.634 156.866 43.578C157.636 42.5 158.021 41.125 158.021 39.453C158.021 39.277 158.021 39.112 158.021 38.958C158.021 38.782 158.01 38.606 157.988 38.43C157.834 36.538 157.306 35.053 156.404 33.975C155.524 32.897 154.402 32.358 153.038 32.358C152.95 32.358 152.873 32.369 152.807 32.391C152.741 32.391 152.664 32.391 152.576 32.391C151.234 32.479 150.156 33.062 149.342 34.14C148.55 35.218 148.154 36.604 148.154 38.298C148.154 38.452 148.154 38.617 148.154 38.793C148.154 38.947 148.165 39.112 148.187 39.288C148.341 41.158 148.88 42.643 149.804 43.743C150.728 44.821 151.861 45.36 153.203 45.36C153.269 45.36 153.335 45.36 153.401 45.36C153.489 45.338 153.566 45.327 153.632 45.327Z" fill="#F1C175"/>
</svg>
